<svg width="1440" height="1282" viewBox="0 0 1440 1282" fill="none" xmlns="http://www.w3.org/2000/svg">
<g opacity="0.6" clip-path="url(#clip0)">
<path d="M617.383 915.905C620.926 919.686 623.751 924.176 625.767 929.087C628.042 927.698 630.32 926.293 632.59 924.925C634.802 923.589 637.039 922.298 639.263 920.985C637.005 916.069 634.205 911.619 630.867 907.766C626.818 910.156 622.778 912.561 618.769 915.026C618.305 915.314 617.847 915.617 617.383 915.905Z" fill="#1067E5"/>
<path d="M617.384 915.905C617.847 915.617 618.305 915.315 618.769 915.027C622.778 912.561 626.818 910.156 630.868 907.766C626.381 902.582 621.004 898.446 615.085 895.33C611.77 899.273 608.453 903.216 605.141 907.158C609.835 909.215 613.939 912.227 617.384 915.905Z" fill="#1067E5"/>
<path d="M527.044 943.675C526.345 943.695 525.648 943.73 524.951 943.75C525.57 944.412 526.215 945.032 526.857 945.659C526.918 944.997 526.964 944.335 527.044 943.675" fill="#1067E5"/>
<path d="M562.58 894.384C554.613 897.967 548.015 902.932 542.682 908.801C546.872 911.866 550.895 915.1 554.76 918.487C563.262 909.95 575.223 904.726 587.322 904.173C591.224 899.352 595.187 894.58 599.13 889.782C595.584 889.125 591.95 888.788 588.272 888.788C579.765 888.788 571.021 890.588 562.58 894.384Z" fill="url(#paint0_linear)"/>
<path d="M527.043 943.675C532.029 943.523 537.023 943.43 542.019 943.379C542.682 939.128 543.938 934.957 545.853 930.951C542.077 927.539 538.1 924.316 533.95 921.28C530.33 928.21 528.011 935.801 527.043 943.675" fill="url(#paint1_linear)"/>
<path d="M559.196 958.959C559.32 957.694 559.492 956.442 559.694 955.195C558.021 956.444 556.33 957.697 554.64 958.95C555.887 958.959 557.131 958.924 558.378 958.939C558.652 958.941 558.922 958.956 559.196 958.959Z" fill="#1067E5"/>
<path d="M559.195 958.958C558.922 958.956 558.651 958.941 558.378 958.938C557.13 958.924 555.886 958.958 554.639 958.95C553.507 959.791 552.381 960.638 551.247 961.481C553.767 962.541 556.33 963.515 558.954 964.393C558.956 962.561 559.02 960.747 559.195 958.958Z" fill="#1067E5"/>
<path d="M484.268 892.443C486.649 893.679 489.06 894.923 491.479 896.181C492.545 893.958 493.688 891.772 494.97 889.635C491.404 890.574 487.836 891.51 484.268 892.443Z" fill="#1067E5"/>
<path d="M592.352 994.014C592.361 991.73 592.274 989.449 592.107 987.177C588.475 986.733 584.864 986.226 581.278 985.644C584.227 989.391 588.009 992.231 592.352 994.014Z" fill="#1067E5"/>
<path d="M576.437 1004.71C576.892 1004.6 577.344 1004.5 577.799 1004.39C577.398 1004.1 576.984 1003.84 576.598 1003.55C576.555 1003.93 576.488 1004.32 576.437 1004.71Z" fill="#1067E5"/>
<path d="M627.27 962.14C625.882 966.707 623.846 970.996 621.286 974.979C623.929 975.261 626.542 975.543 629.085 975.848C631.302 976.116 633.517 976.419 635.729 976.738C638.226 972.628 640.178 968.118 641.604 963.404C640.705 963.315 639.816 963.231 638.966 963.15C635.069 962.773 631.17 962.448 627.27 962.14Z" fill="#1067E5"/>
<path d="M627.271 962.14C631.17 962.448 635.07 962.773 638.966 963.15C639.816 963.231 640.706 963.315 641.604 963.404C643.157 958.275 644.119 952.926 644.571 947.642C639.528 946.965 634.39 946.619 629.361 946.363C629.528 951.913 628.777 957.186 627.271 962.14Z" fill="#1067E5"/>
<path d="M547.542 976.32C548.418 978.14 549.377 979.923 550.413 981.659C551.554 980.703 552.697 979.753 553.849 978.811C551.727 978.039 549.621 977.213 547.542 976.32Z" fill="#1067E5"/>
<path d="M581.236 939.698C580.542 941.04 579.894 942.399 579.289 943.77C578.987 944.453 578.693 945.144 578.417 945.835C580.45 949.139 582.241 952.621 583.9 956.206C589.539 952.278 595.244 948.45 600.993 944.703C609.209 939.344 617.489 934.145 625.769 929.085C623.751 924.178 620.928 919.688 617.383 915.906C605.114 923.495 593.07 931.45 581.236 939.698" fill="url(#paint2_linear)"/>
<path d="M583.9 956.206C584.421 957.335 584.963 958.453 585.444 959.613C594.668 959.976 603.887 960.469 613.094 961.096C617.818 961.419 622.547 961.765 627.27 962.139C628.779 957.185 629.528 951.912 629.361 946.365C624.787 946.132 620.303 945.962 616.084 945.662C611.055 945.302 606.024 944.983 600.993 944.703C595.244 948.45 589.539 952.278 583.9 956.206" fill="url(#paint3_linear)"/>
<path d="M531.035 977.757C531.605 979.335 532.181 980.917 532.863 982.472C534.404 985.985 536.242 989.243 538.214 992.37C541.339 997.318 544.925 1001.83 548.971 1005.8C551.445 1006.16 553.948 1006.42 556.491 1006.55C562.242 1006.83 568.138 1006.37 573.967 1005.24C564.431 999.752 556.209 991.383 550.411 981.663C549.374 979.923 548.415 978.14 547.543 976.32C544.306 974.932 541.129 973.403 538.036 971.732C534.465 969.803 531.017 967.683 527.72 965.393C528.469 969.564 529.569 973.696 531.035 977.757" fill="url(#paint4_linear)"/>
<path d="M570.892 1021.75C571.358 1021.7 571.825 1021.64 572.288 1021.58C571.949 1021.43 571.626 1021.24 571.286 1021.09C571.162 1021.31 571.018 1021.52 570.892 1021.75Z" fill="#1067E5"/>
<path d="M572.289 1021.58C571.823 1021.64 571.359 1021.7 570.892 1021.75C567.566 1027.59 562.817 1032.61 556.17 1036.17C546.032 1041.61 529.265 1043.61 522.586 1031.89C519.303 1026.12 519.686 1019.99 522.004 1014.09C523.856 1009.37 526.952 1004.81 530.388 1000.68C532.934 997.617 535.653 994.815 538.216 992.367C536.24 989.245 534.406 985.988 532.865 982.471C532.182 980.919 531.609 979.335 531.036 977.754C525.8 982.497 520.948 987.601 516.688 993.211C515.781 994.406 514.839 995.572 513.992 996.816C511.858 999.959 510.021 1003.35 508.552 1006.88C503.405 1019.22 503.028 1033.23 512.256 1044.26C521.979 1055.89 538.239 1058.11 552.279 1054.4C568.295 1050.16 579.115 1039.57 585.439 1026.29C580.923 1025.05 576.523 1023.49 572.289 1021.58Z" fill="#1067E5"/>
<path d="M542.019 943.379C537.022 943.431 532.028 943.523 527.043 943.675C526.963 944.335 526.916 944.997 526.856 945.662C531.363 950.089 536.357 953.824 541.786 956.897C543.088 957.637 544.433 958.311 545.78 958.985C548.732 958.968 551.687 958.936 554.639 958.951C556.33 957.695 558.02 956.445 559.694 955.195C560.085 952.779 560.633 950.406 561.289 948.062C560.126 946.437 558.928 944.847 557.669 943.301C556.981 943.295 556.292 943.278 555.607 943.269C555.017 943.266 554.426 943.263 553.839 943.263C549.896 943.263 545.959 943.333 542.019 943.379" fill="url(#paint5_linear)"/>
<path d="M506.287 944.575C499.271 944.981 492.273 945.474 485.289 946.076C480.113 946.522 474.944 947.006 469.788 947.559C381.367 957.06 295.874 982.583 217.074 1026.32C178.459 1047.75 142.099 1072.77 105.754 1097.77C75.2717 1118.75 44.5335 1140.05 10.8835 1155.71C7.2893 1157.38 3.66048 1158.95 0 1160.44V1177.4C51.143 1158.2 96.3792 1122.9 140.872 1092.58C214.618 1042.33 292.127 1000.13 379.339 978.536C410.397 970.847 441.965 965.703 473.746 962.59C479.192 962.057 484.638 961.533 490.095 961.118C500.066 960.366 510.054 959.874 520.05 959.508C514.803 955.033 510.143 950.039 506.287 944.575Z" fill="#1067E5"/>
<path d="M473.746 962.591C476.922 971.505 481.461 979.963 487.374 987.567C493.304 995.196 500.521 1001.65 508.553 1006.87C510.019 1003.35 511.857 999.959 513.994 996.817C514.837 995.57 515.782 994.407 516.689 993.211C505.069 985.283 495.806 974.238 490.095 961.117C484.638 961.531 479.192 962.058 473.746 962.591" fill="url(#paint6_linear)"/>
<path d="M636.111 1010.42C624.462 1014 611.934 1015.14 599.8 1013.55C596.249 1015.29 592.589 1016.79 588.836 1018.01C588.767 1018.03 588.698 1018.05 588.629 1018.07C583.306 1019.78 577.823 1020.91 572.288 1021.58C576.521 1023.49 580.925 1025.06 585.441 1026.29C599.256 1030.08 614.143 1030.76 628.577 1028.27C634.236 1027.3 639.893 1025.72 645.356 1023.64C646.235 1023.09 647.116 1022.55 648.009 1022.04C652.018 1019.72 656.176 1017.72 660.407 1015.87C665.888 1012.14 670.712 1007.57 674.597 1002.11C669.447 999.838 664.14 998.018 658.725 996.523C651.741 1003.25 642.131 1008.57 636.111 1010.42" fill="url(#paint7_linear)"/>
<path d="M639.263 920.984C637.04 922.297 634.802 923.588 632.59 924.924C630.321 926.295 628.043 927.697 625.768 929.086C627.147 932.452 628.167 936 628.748 939.658C629.108 941.936 629.296 944.168 629.362 946.366C634.39 946.619 639.528 946.965 644.571 947.641C644.695 946.227 644.784 944.813 644.836 943.416C644.603 939.333 643.995 935.203 642.921 931.044C641.996 927.464 640.718 924.149 639.263 920.984Z" fill="#1067E5"/>
<path d="M1294.05 1078.03C1293.78 1077.93 1293.5 1077.81 1293.22 1077.71C1285.38 1080.92 1277.11 1083.23 1268.62 1084.69C1276.14 1088.47 1283.98 1091.82 1291.95 1094.83C1299.32 1092.25 1306.43 1088.99 1313.13 1085.06C1306.73 1082.82 1300.36 1080.49 1294.05 1078.03Z" fill="#FF3838"/>
<path d="M1226.48 996.807C1234.58 961.362 1273.61 936.681 1307.64 954.522C1341.18 972.111 1353.82 1015.43 1332.26 1047.01C1322.37 1061.48 1308.66 1071.37 1293.22 1077.71C1293.5 1077.81 1293.78 1077.93 1294.05 1078.03C1300.36 1080.5 1306.73 1082.81 1313.13 1085.06C1325.93 1077.54 1337.2 1067.55 1345.77 1054.9C1368.14 1021.87 1360.37 977.672 1330.78 951.703C1301.75 926.218 1260.43 927.039 1232.97 954.482C1205.48 981.949 1201.99 1023.46 1227.2 1053.51C1238.23 1066.67 1252.7 1076.67 1268.62 1084.69C1277.11 1083.23 1285.38 1080.92 1293.22 1077.71C1260.07 1064.63 1216.86 1038.95 1226.48 996.807Z" fill="#FF3838"/>
<path d="M499.911 882.982C504.519 885.407 509.158 887.91 513.769 890.496C514.866 887.579 516.197 884.716 517.804 881.957C528.426 863.724 547.678 853.736 568.593 853.871C586.495 853.986 602.044 860.662 614.365 871.304C617.737 867.26 621.144 863.249 624.534 859.222C614.627 850.718 602.871 844.31 589.507 840.928C582.837 839.241 576.078 838.423 569.411 838.423C539.606 838.42 511.471 854.764 499.911 882.982Z" fill="url(#paint8_linear)"/>
<path d="M1440 1115.58C1437.51 1115.22 1435.02 1114.9 1432.54 1114.52C1392.08 1108.29 1351.84 1098.63 1313.13 1085.06C1306.43 1088.99 1299.32 1092.25 1291.95 1094.83C1309.99 1101.64 1328.65 1106.79 1345.57 1111.58C1376.55 1120.37 1408.13 1126.95 1440 1131.33V1115.58Z" fill="#FF3838"/>
<path d="M704.75 1002.74C698.097 1004.09 691.441 1005.62 684.86 1007.4C686.436 1008.34 687.997 1009.32 689.535 1010.36C693.523 1013.09 697.19 1016.21 700.551 1019.62C706.466 1018.23 712.419 1016.98 718.404 1015.88C714.271 1010.94 709.686 1006.6 704.75 1002.74Z" fill="#FF3838"/>
<path d="M782.534 993.119C758.958 994.193 735.417 996.869 712.227 1001.27C709.739 1001.74 707.245 1002.23 704.75 1002.74C709.687 1006.6 714.269 1010.94 718.402 1015.88C734.849 1012.85 751.51 1010.85 768.125 1009.62C876.18 1001.65 983.272 1028.34 1085.4 1060.98C1135.54 1077.01 1186.57 1100.4 1239.85 1102.47C1257.3 1103.14 1275.28 1100.67 1291.94 1094.84C1283.98 1091.83 1276.14 1088.47 1268.62 1084.69C1252.51 1087.46 1235.74 1087.32 1220.12 1084.96C1195.12 1081.2 1170.97 1073.11 1147.11 1065C1123.31 1056.92 1099.48 1048.93 1075.48 1041.45C988.934 1014.47 898.736 992.555 807.607 992.555C799.252 992.555 790.903 992.736 782.534 993.119" fill="url(#paint9_linear)"/>
<path d="M644.89 939.285C644.904 940.65 644.887 942.027 644.835 943.418C644.916 944.849 644.95 946.272 644.933 947.689C650.132 948.4 655.215 949.474 659.949 951.208C660.482 946.232 660.655 941.226 660.453 936.284C660.102 927.777 658.731 919.307 656.482 911.096C651.776 913.719 647.096 916.389 642.445 919.108C643.974 925.715 644.812 932.497 644.89 939.285Z" fill="#FF3838"/>
<path d="M695.713 1122.02C677.477 1133.61 654.768 1131.8 638.217 1117.96C620.775 1103.37 617.74 1080.67 629.104 1061.24C641.871 1039.41 665.787 1028.78 689.236 1022.45C692.986 1021.44 696.761 1020.51 700.551 1019.62C697.19 1016.21 693.521 1013.09 689.532 1010.36C687.997 1009.32 686.434 1008.34 684.858 1007.4C676.506 1009.67 668.301 1012.41 660.407 1015.87C655.747 1019.04 650.667 1021.61 645.356 1023.64C614.897 1042.7 593.3 1082.67 615.712 1116.04C635.936 1146.15 677.353 1154.53 706.979 1133.25C738.409 1110.68 746.965 1069.04 730.558 1034.77C727.16 1027.67 723.05 1021.43 718.402 1015.88C712.417 1016.98 706.467 1018.24 700.551 1019.62C728.677 1048.16 733.637 1097.92 695.713 1122.02Z" fill="#FF3838"/>
<path d="M625.45 883.008C630.354 889.321 634.427 896.368 637.549 903.874C642.09 901.253 646.649 898.67 651.24 896.141C647.266 886.951 642.102 878.334 635.789 870.713C632.342 874.812 628.897 878.91 625.45 883.008" fill="url(#paint10_linear)"/>
<path d="M602.958 1011.93C617.425 1011.82 631.989 1005.35 641.666 994.767C642.158 994.229 642.559 993.63 643.031 993.074C638.204 992.239 633.325 991.562 628.415 990.98C621.471 999.465 612.73 1006.64 602.958 1011.93Z" fill="#FF3838"/>
<path d="M651.869 979.63C653.931 975.492 655.648 971.181 656.938 966.719C652.584 964.778 647.466 964.024 642.743 963.526C641.496 968.185 639.744 972.695 637.556 977.007C642.362 977.735 647.143 978.597 651.869 979.63Z" fill="#FF3838"/>
<path d="M648.008 1022.04C647.115 1022.55 646.233 1023.09 645.358 1023.64C650.669 1021.61 655.749 1019.04 660.409 1015.87C656.178 1017.72 652.019 1019.72 648.008 1022.04Z" fill="#FF3838"/>
<path d="M644.932 947.689C644.95 946.272 644.915 944.849 644.834 943.418C644.783 944.815 644.693 946.226 644.572 947.64C644.693 947.654 644.811 947.672 644.932 947.689Z" fill="#1067E5"/>
<path d="M628.416 990.976C633.326 991.561 638.205 992.241 643.029 993.076C648.34 993.992 653.584 995.109 658.725 996.523C664.14 998.018 669.447 999.838 674.597 1002.11C678.093 1003.65 681.515 1005.41 684.858 1007.4C691.442 1005.62 698.095 1004.09 704.75 1002.74C697.525 997.099 689.561 992.494 681.051 988.814C676.518 986.852 671.841 985.13 667.054 983.63C662.089 982.074 657.012 980.755 651.871 979.629C647.145 978.595 642.361 977.734 637.557 977.006C635.046 981.953 631.97 986.639 628.416 990.976" fill="url(#paint11_linear)"/>
<path d="M598.963 995.818C596.754 997.108 594.473 998.294 592.134 999.366C587.526 1001.49 582.708 1003.18 577.798 1004.39C577.345 1004.5 576.89 1004.6 576.435 1004.71C575.615 1004.9 574.791 1005.08 573.967 1005.24C568.138 1006.37 562.243 1006.83 556.491 1006.55C553.948 1006.42 551.446 1006.16 548.972 1005.8C542.48 1004.85 536.248 1003.11 530.387 1000.68C526.954 1004.81 523.858 1009.37 522.003 1014.09C537.27 1020.79 554.314 1023.52 570.891 1021.75C571.018 1021.52 571.162 1021.31 571.286 1021.09C571.626 1021.25 571.948 1021.43 572.288 1021.59C577.824 1020.91 583.307 1019.78 588.629 1018.07C588.698 1018.05 588.768 1018.03 588.837 1018.01C592.589 1016.79 596.25 1015.29 599.801 1013.55C600.864 1013.03 601.918 1012.49 602.96 1011.93C612.732 1006.63 621.47 999.464 628.417 990.976C626.516 990.755 624.612 990.541 622.705 990.34C618.086 989.847 613.446 989.407 608.809 988.955C605.754 991.495 602.445 993.782 598.963 995.818" fill="url(#paint12_linear)"/>
<path d="M642.742 963.527C647.465 964.023 652.583 964.777 656.937 966.718C658.726 967.516 660.388 968.504 661.83 969.762C666.862 974.157 668.126 978.932 667.055 983.63C671.841 985.13 676.518 986.852 681.052 988.814C684.217 976.28 680.375 962.928 668.475 955.348C665.816 953.655 662.951 952.304 659.95 951.209C655.215 949.476 650.132 948.401 644.931 947.69C644.87 953.105 644.113 958.404 642.742 963.527" fill="url(#paint13_linear)"/>
<path d="M635.729 976.739C636.337 976.826 636.948 976.915 637.555 977.007C639.744 972.696 641.495 968.186 642.742 963.526C642.362 963.485 641.979 963.442 641.605 963.405C640.179 968.119 638.226 972.627 635.729 976.739Z" fill="#1067E5"/>
<path d="M641.604 963.405C641.979 963.443 642.362 963.486 642.742 963.526C644.113 958.405 644.868 953.103 644.931 947.689C644.813 947.672 644.692 947.654 644.571 947.64C644.119 952.925 643.157 958.276 641.604 963.405Z" fill="#1067E5"/>
<path d="M741.358 853.442C710.482 865.884 680.372 880.096 651.24 896.141C646.65 898.669 642.091 901.253 637.549 903.874C635.317 905.161 633.088 906.451 630.867 907.767C634.205 911.618 637.004 916.068 639.262 920.984C640.322 920.359 641.379 919.728 642.442 919.109C647.096 916.387 651.776 913.72 656.485 911.094C685.239 895.075 714.978 880.831 745.52 868.527C753.728 865.215 751.433 852.843 744.224 852.843C743.34 852.843 742.381 853.03 741.358 853.442" fill="url(#paint14_linear)"/>
<path d="M694.895 776.226C671.57 803.961 647.902 831.476 624.534 859.222C621.144 863.248 617.737 867.26 614.365 871.304C609.244 877.429 604.201 883.616 599.129 889.782C595.187 894.58 591.224 899.352 587.321 904.173C586.368 905.354 585.389 906.512 584.433 907.693C578.411 915.172 572.567 923.158 567.997 931.694C571.081 935.26 573.903 939.044 576.516 942.984C576.674 943.223 576.841 943.456 576.997 943.698C577.466 944.413 577.964 945.107 578.416 945.835C578.693 945.144 578.987 944.453 579.289 943.77C579.894 942.399 580.542 941.04 581.236 939.698C587.169 928.25 596.1 917.908 604.066 908.436C604.423 908.006 604.78 907.583 605.14 907.157C608.455 903.214 611.773 899.271 615.085 895.332C618.541 891.222 621.994 887.115 625.45 883.008C628.897 878.91 632.342 874.812 635.789 870.713C642.407 862.848 649.022 854.98 655.641 847.115C672.411 827.171 689.184 807.23 705.957 787.286C710.862 781.454 705.646 773.614 700.013 773.614C698.25 773.614 696.445 774.383 694.895 776.226" fill="url(#paint15_linear)"/>
<path d="M588.828 968.988C587.863 965.745 586.706 962.64 585.444 959.611C584.963 958.453 584.422 957.335 583.9 956.206C582.242 952.621 580.45 949.136 578.414 945.836C577.965 945.107 577.467 944.413 577 943.699C576.842 943.457 576.674 943.223 576.516 942.984C573.901 939.045 571.082 935.26 567.997 931.695C563.933 926.995 559.475 922.623 554.761 918.487C550.899 915.1 546.869 911.866 542.682 908.802C533.515 902.088 523.706 896.072 513.77 890.496C509.156 887.91 504.522 885.407 499.911 882.982C497.316 881.614 494.73 880.264 492.164 878.933C488.379 876.975 483.731 877.968 481.462 881.741C469.605 901.475 465.766 925.221 469.789 947.561C474.947 947.005 480.114 946.521 485.289 946.075C484.834 943.834 484.471 941.553 484.212 939.232C482.55 924.331 485.067 909.533 491.478 896.182C489.059 894.923 486.649 893.679 484.267 892.443C487.835 891.51 491.403 890.571 494.972 889.635C493.687 891.769 492.544 893.958 491.478 896.182C492.812 896.87 494.142 897.561 495.482 898.261C500.45 900.862 505.449 903.546 510.409 906.345C518.507 910.918 526.479 915.817 533.95 921.284C538.1 924.316 542.077 927.536 545.853 930.952C550.092 934.791 554.072 938.878 557.669 943.301C558.925 944.848 560.126 946.438 561.29 948.062C562.223 949.366 563.098 950.714 563.968 952.071C564.403 952.75 564.869 953.407 565.287 954.101C566.255 955.705 567.17 957.41 568.049 959.179C569.066 961.218 569.993 963.372 570.868 965.584C571.188 966.387 571.502 967.188 571.799 968.009C572.792 968.239 573.783 968.47 574.785 968.686C579.618 969.719 584.508 970.575 589.418 971.295C589.214 970.529 589.053 969.742 588.828 968.988Z" fill="#1067E5"/>
<path d="M559.694 955.195C559.492 956.442 559.319 957.695 559.195 958.96C559.023 960.748 558.956 962.562 558.951 964.391C562.124 965.454 565.341 966.43 568.627 967.265C569.676 967.533 570.744 967.761 571.801 968.011C571.502 967.188 571.185 966.387 570.871 965.584C569.993 963.372 569.062 961.217 568.052 959.178C567.17 957.41 566.254 955.705 565.287 954.101C564.869 953.407 564.4 952.75 563.968 952.071C563.098 950.717 562.219 949.366 561.289 948.062C560.633 950.406 560.085 952.779 559.694 955.195V955.195ZM576.596 1003.55C576.982 1003.84 577.4 1004.11 577.797 1004.39C582.708 1003.18 587.526 1001.49 592.134 999.366C594.473 998.295 596.754 997.108 598.963 995.818C596.65 995.478 594.438 994.87 592.353 994.012C588.007 992.229 584.228 989.39 581.276 985.643C579.534 985.36 577.792 985.064 576.061 984.736C571.127 983.802 566.257 982.676 561.471 981.285C564.27 990.112 569.35 997.995 576.596 1003.55" fill="url(#paint16_linear)"/>
<path d="M506.287 944.577C510.143 950.04 514.803 955.031 520.048 959.51C522.487 961.583 525.056 963.544 527.72 965.393C531.018 967.683 534.465 969.803 538.036 971.732C541.129 973.403 544.306 974.932 547.543 976.32C549.62 977.213 551.728 978.039 553.847 978.811C554.026 978.875 554.205 978.95 554.383 979.013C556.722 979.848 559.086 980.594 561.471 981.285C566.257 982.676 571.127 983.802 576.061 984.735C577.792 985.064 579.534 985.36 581.276 985.643C584.865 986.227 588.474 986.731 592.105 987.175C597.646 987.857 603.225 988.413 608.809 988.955C613.446 989.407 618.086 989.847 622.705 990.34C624.612 990.542 626.516 990.755 628.416 990.976C631.97 986.639 635.046 981.953 637.557 977.006C636.947 976.913 636.339 976.824 635.729 976.741C633.517 976.418 631.302 976.116 629.085 975.848C626.541 975.545 623.932 975.26 621.288 974.981C611.087 973.898 600.244 972.887 589.418 971.295C584.508 970.575 579.618 969.719 574.785 968.685C573.783 968.472 572.792 968.242 571.801 968.011C570.744 967.761 569.676 967.533 568.628 967.265C565.341 966.43 562.125 965.454 558.951 964.391C556.333 963.516 553.767 962.539 551.25 961.479C549.392 960.702 547.569 959.875 545.781 958.985C544.433 958.311 543.088 957.638 541.786 956.897C536.357 953.824 531.363 950.089 526.856 945.663C526.217 945.032 525.569 944.413 524.949 943.75C522.836 941.495 520.805 939.119 518.971 936.481C512.594 927.32 509.873 916.816 510.408 906.348C505.452 903.548 500.452 900.861 495.481 898.261C492.538 915.978 497.132 931.611 506.287 944.577Z" fill="url(#paint17_linear)"/>
<path d="M691.646 772.169L678.283 790.745C678.283 790.745 675.348 803.132 695.882 805.413L715.763 785.858L691.646 772.169Z" fill="#4A4F4F"/>
<path d="M711.444 714.727L749.985 753.267L768.235 753.918L731.08 717.416L711.444 714.727Z" fill="#4A4F4F"/>
<path d="M749.984 753.266L726.426 785.134L705.958 790.012L736.621 789.77L768.235 753.92L749.984 753.266Z" fill="#3B3F3F"/>
<path d="M711.444 714.727L749.984 753.267L726.426 785.134L705.958 790.013L689.934 773.882L690.017 755.222L711.444 714.727Z" fill="#5A5E5E"/>
<path d="M691.779 775.429L689.02 779.023C689.02 779.023 688.478 790.58 704.989 792.386L707.941 789.244C693.873 787.061 692.004 778.196 691.779 775.429ZM687.364 781.318L684.798 784.763C684.798 784.763 684.291 795.848 699.664 797.579L702.412 794.569C689.314 792.475 687.574 783.971 687.364 781.318V781.318ZM682.805 787.029L680.239 790.48C680.239 790.48 679.729 801.562 695.102 803.296L697.85 800.283C684.755 798.189 683.012 789.685 682.805 787.029" fill="#5A5E5E"/>
<path d="M715.183 718.466L711.445 714.728L690.015 755.221L689.935 773.883L705.956 790.011L717.231 787.327C700.052 765.603 706.981 737.419 715.183 718.466Z" fill="#676868"/>
<path d="M705.957 790.012L726.425 785.136L748.601 753.349L711.443 714.726L750.798 752.125L768.234 753.92L751.043 753.591L727.577 786.348L705.957 790.012Z" fill="#676868"/>
<path d="M773.24 720.539C772.903 720.282 772.48 720.173 772.022 720.161C772.947 721.46 772.509 723.989 770.772 726.278C769.289 728.231 767.362 729.38 765.894 729.346C766.003 729.501 766.052 729.709 766.205 729.824C767.627 730.904 770.355 729.697 772.299 727.137C774.243 724.571 774.663 721.619 773.24 720.539Z" fill="#BABABA"/>
<path d="M772.299 727.135C770.355 729.698 767.628 730.905 766.205 729.825C764.782 728.748 765.203 725.793 767.147 723.23C769.091 720.664 771.818 719.46 773.241 720.537C774.663 721.617 774.243 724.569 772.299 727.135ZM776.708 711.059L772.431 712.894L747.623 745.527L758.867 746.506L783.188 717.294L783.309 714.481L776.708 711.059Z" fill="#A4A5A5"/>
<path d="M772.431 712.894L776.707 711.06L783.308 714.481L774.879 709.96L770.599 711.794L745.992 743.733L747.622 745.528L772.431 712.894Z" fill="#BABABA"/>
<path d="M752.709 700.251C752.369 699.994 751.949 699.885 751.491 699.874C752.412 701.172 751.975 703.701 750.241 705.991C748.758 707.943 746.828 709.09 745.359 709.058C745.469 709.211 745.518 709.421 745.67 709.536C747.093 710.616 749.823 709.412 751.767 706.846C753.711 704.283 754.132 701.331 752.709 700.251Z" fill="#BABABA"/>
<path d="M751.767 706.846C749.823 709.412 747.093 710.616 745.67 709.536C744.247 708.459 744.668 705.504 746.612 702.941C748.556 700.375 751.286 699.171 752.709 700.251C754.132 701.328 753.711 704.283 751.767 706.846ZM756.176 690.773L751.9 692.604L727.088 725.238L738.332 726.217L762.654 697.005L762.774 694.194L756.176 690.773Z" fill="#A4A5A5"/>
<path d="M751.9 692.605L756.177 690.773L762.775 694.195L754.345 689.67L750.065 691.505L725.458 723.444L727.089 725.238L751.9 692.605Z" fill="#BABABA"/>
<path d="M743.574 845.331L723.63 856.551C723.63 856.551 715.753 866.551 733.416 877.267L759.685 867.904L743.574 845.331Z" fill="#4A4F4F"/>
<path d="M785.723 801.568L804.448 852.752L820.726 861.032L802.401 812.276L785.723 801.568Z" fill="#4A4F4F"/>
<path d="M804.448 852.753L769.66 871.738L749.04 867.542L776.955 880.234L820.726 861.033L804.448 852.753Z" fill="#3B3F3F"/>
<path d="M785.723 801.568L804.449 852.752L769.661 871.737L749.04 867.54L741.302 846.159L749.233 829.271L785.723 801.568Z" fill="#5A5E5E"/>
<path d="M742.323 848.343L738.305 850.442C738.305 850.442 732.949 860.692 747.164 869.283L751.162 867.679C739.322 859.776 741.358 850.946 742.323 848.343ZM735.84 851.825L732.061 853.87C732.061 853.87 726.932 863.711 740.146 871.754L743.907 870.179C732.905 862.766 734.913 854.319 735.84 851.825V851.825ZM729.297 855.088L725.515 857.133C725.515 857.133 720.389 866.974 733.602 875.017L737.361 873.442C726.365 866.029 728.366 857.582 729.297 855.088Z" fill="#5A5E5E"/>
<path d="M787.539 806.535L785.722 801.567L749.232 829.273L741.301 846.161L749.039 867.542L760.398 869.852C753.964 842.915 772.12 820.27 787.539 806.535Z" fill="#676868"/>
<path d="M749.039 867.541L769.659 871.737L803.157 852.242L785.721 801.569L805.665 852.064L820.727 861.032L805.271 853.495L770.192 873.321L749.039 867.541Z" fill="#676868"/>
<path d="M839.323 832.866C839.127 832.489 838.787 832.212 838.378 832.01C838.669 833.577 837.206 835.685 834.666 837.03C832.5 838.179 830.268 838.407 828.949 837.756C828.987 837.946 828.943 838.153 829.03 838.323C829.868 839.899 832.849 839.956 835.691 838.45C838.537 836.944 840.161 834.441 839.323 832.866Z" fill="#BABABA"/>
<path d="M835.692 838.451C832.85 839.955 829.869 839.9 829.031 838.322C828.193 836.744 829.82 834.244 832.662 832.737C835.508 831.228 838.489 831.289 839.324 832.867C840.162 834.44 838.535 836.945 835.692 838.451ZM846.46 825.728L841.809 825.589L805.564 844.738L815.351 850.36L849.712 834.108L851.005 831.611L846.46 825.728Z" fill="#A4A5A5"/>
<path d="M841.809 825.59L846.461 825.728L851.005 831.612L845.263 823.96L840.611 823.822L804.842 842.426L805.565 844.736L841.809 825.59Z" fill="#BABABA"/>
<path d="M829.245 805.815C829.047 805.441 828.71 805.161 828.298 804.96C828.589 806.527 827.129 808.635 824.588 809.983C822.423 811.132 820.188 811.359 818.872 810.708C818.906 810.896 818.863 811.106 818.952 811.276C819.787 812.851 822.771 812.909 825.611 811.4C828.456 809.893 830.081 807.393 829.245 805.815Z" fill="#BABABA"/>
<path d="M825.612 811.401C822.772 812.907 819.789 812.852 818.951 811.274C818.113 809.696 819.74 807.196 822.582 805.69C825.428 804.18 828.409 804.238 829.247 805.816C830.082 807.392 828.455 809.894 825.612 811.401ZM836.383 798.68L831.732 798.541L795.484 817.691L805.274 823.312L839.632 807.061L840.925 804.564L836.383 798.68Z" fill="#A4A5A5"/>
<path d="M831.732 798.542L836.383 798.68L840.925 804.564L835.183 796.912L830.531 796.771L794.762 815.378L795.485 817.688L831.732 798.542Z" fill="#BABABA"/>
<path d="M374.389 847.794L469.253 845.099L381.615 805.211L374.389 847.794ZM581.311 705.145L587.607 799.842L624.139 710.752L581.311 705.145ZM450.141 706.66L516.629 798.569L497.074 685.149L450.141 706.66Z" fill="white"/>
</g>
<defs>
<linearGradient id="paint0_linear" x1="542.682" y1="903.637" x2="599.13" y2="903.637" gradientUnits="userSpaceOnUse">
<stop stop-color="#0F5CCF"/>
<stop offset="0.0989132" stop-color="#0F5CCF"/>
<stop offset="0.696724" stop-color="#1067E5"/>
<stop offset="1" stop-color="#1067E5"/>
</linearGradient>
<linearGradient id="paint1_linear" x1="541.386" y1="925.867" x2="536.498" y2="935.156" gradientUnits="userSpaceOnUse">
<stop stop-color="#0F5CCF"/>
<stop offset="0.0989132" stop-color="#0F5CCF"/>
<stop offset="0.696724" stop-color="#1067E5"/>
<stop offset="1" stop-color="#1067E5"/>
</linearGradient>
<linearGradient id="paint2_linear" x1="578.415" y1="936.055" x2="625.767" y2="936.055" gradientUnits="userSpaceOnUse">
<stop stop-color="#0F5CCF"/>
<stop offset="0.0989132" stop-color="#0F5CCF"/>
<stop offset="0.696724" stop-color="#1067E5"/>
<stop offset="1" stop-color="#1067E5"/>
</linearGradient>
<linearGradient id="paint3_linear" x1="635.149" y1="954.185" x2="599.299" y2="952.881" gradientUnits="userSpaceOnUse">
<stop stop-color="#0F5CCF"/>
<stop offset="0.0989132" stop-color="#0F5CCF"/>
<stop offset="0.696724" stop-color="#1067E5"/>
<stop offset="1" stop-color="#1067E5"/>
</linearGradient>
<linearGradient id="paint4_linear" x1="527.72" y1="986.012" x2="573.967" y2="986.012" gradientUnits="userSpaceOnUse">
<stop stop-color="#0F5CCF"/>
<stop offset="0.0989132" stop-color="#0F5CCF"/>
<stop offset="0.696724" stop-color="#1067E5"/>
<stop offset="1" stop-color="#1067E5"/>
</linearGradient>
<linearGradient id="paint5_linear" x1="526.856" y1="951.125" x2="561.29" y2="951.125" gradientUnits="userSpaceOnUse">
<stop stop-color="#0F5CCF"/>
<stop offset="0.0989132" stop-color="#0F5CCF"/>
<stop offset="0.696724" stop-color="#1067E5"/>
<stop offset="1" stop-color="#1067E5"/>
</linearGradient>
<linearGradient id="paint6_linear" x1="473.746" y1="983.997" x2="516.688" y2="983.997" gradientUnits="userSpaceOnUse">
<stop stop-color="#0F5CCF"/>
<stop offset="0.0989132" stop-color="#0F5CCF"/>
<stop offset="0.696724" stop-color="#1067E5"/>
<stop offset="1" stop-color="#1067E5"/>
</linearGradient>
<linearGradient id="paint7_linear" x1="572.29" y1="1013.13" x2="674.598" y2="1013.13" gradientUnits="userSpaceOnUse">
<stop stop-color="#0F5CCF"/>
<stop offset="0.0989132" stop-color="#0F5CCF"/>
<stop offset="0.696724" stop-color="#1067E5"/>
<stop offset="1" stop-color="#1067E5"/>
</linearGradient>
<linearGradient id="paint8_linear" x1="564.916" y1="903.916" x2="559.701" y2="840.362" gradientUnits="userSpaceOnUse">
<stop stop-color="#BD1616"/>
<stop offset="1" stop-color="#FF3838"/>
</linearGradient>
<linearGradient id="paint9_linear" x1="1049.93" y1="955.936" x2="1043.41" y2="967.669" gradientUnits="userSpaceOnUse">
<stop stop-color="#BD1616"/>
<stop offset="1" stop-color="#FF3838"/>
</linearGradient>
<linearGradient id="paint10_linear" x1="625.45" y1="887.294" x2="651.239" y2="887.294" gradientUnits="userSpaceOnUse">
<stop stop-color="#BD1616"/>
<stop offset="1" stop-color="#FF3838"/>
</linearGradient>
<linearGradient id="paint11_linear" x1="678.001" y1="1017.52" x2="671.156" y2="1005.14" gradientUnits="userSpaceOnUse">
<stop stop-color="#BD1616"/>
<stop offset="1" stop-color="#FF3838"/>
</linearGradient>
<linearGradient id="paint12_linear" x1="522.004" y1="1005.61" x2="628.415" y2="1005.61" gradientUnits="userSpaceOnUse">
<stop stop-color="#0F5CCF"/>
<stop offset="0.0989132" stop-color="#0F5CCF"/>
<stop offset="0.696724" stop-color="#1067E5"/>
<stop offset="1" stop-color="#1067E5"/>
</linearGradient>
<linearGradient id="paint13_linear" x1="642.743" y1="968.251" x2="682.112" y2="968.251" gradientUnits="userSpaceOnUse">
<stop stop-color="#0F5CCF"/>
<stop offset="0.0989132" stop-color="#0F5CCF"/>
<stop offset="0.696724" stop-color="#1067E5"/>
<stop offset="1" stop-color="#1067E5"/>
</linearGradient>
<linearGradient id="paint14_linear" x1="630.868" y1="886.914" x2="750.731" y2="886.914" gradientUnits="userSpaceOnUse">
<stop stop-color="#0F5CCF"/>
<stop offset="0.0989132" stop-color="#0F5CCF"/>
<stop offset="0.696724" stop-color="#1067E5"/>
<stop offset="1" stop-color="#1067E5"/>
</linearGradient>
<linearGradient id="paint15_linear" x1="578.233" y1="944.517" x2="595.344" y2="919.584" gradientUnits="userSpaceOnUse">
<stop stop-color="#BD1616"/>
<stop offset="1" stop-color="#FF3838"/>
</linearGradient>
<linearGradient id="paint16_linear" x1="558.952" y1="976.225" x2="598.963" y2="976.225" gradientUnits="userSpaceOnUse">
<stop stop-color="#BD1616"/>
<stop offset="1" stop-color="#FF3838"/>
</linearGradient>
<linearGradient id="paint17_linear" x1="570.039" y1="915.5" x2="567.758" y2="929.84" gradientUnits="userSpaceOnUse">
<stop stop-color="#BD1616"/>
<stop offset="1" stop-color="#FF3838"/>
</linearGradient>
<clipPath id="clip0">
<rect width="1440" height="1440" fill="white"/>
</clipPath>
</defs>
</svg>
