<?xml version="1.0" encoding="UTF-8" standalone="no"?>
<svg
   xmlns:dc="http://purl.org/dc/elements/1.1/"
   xmlns:cc="http://creativecommons.org/ns#"
   xmlns:rdf="http://www.w3.org/1999/02/22-rdf-syntax-ns#"
   xmlns:svg="http://www.w3.org/2000/svg"
   xmlns="http://www.w3.org/2000/svg"
   version="1.1"
   id="svg4388"
   viewBox="0 0 89.773683 69.715578"
   height="19.675285mm"
   width="25.336128mm">
  <defs
     id="defs4390">
    <clipPath
       id="clipPath62"
       clipPathUnits="userSpaceOnUse">
      <path
         id="path64"
         d="M 0,500 500,500 500,0 0,0 0,500 Z" />
    </clipPath>
  </defs>
  <metadata
     id="metadata4393">
    <rdf:RDF>
      <cc:Work
         rdf:about="">
        <dc:format>image/svg+xml</dc:format>
        <dc:type
           rdf:resource="http://purl.org/dc/dcmitype/StillImage" />
        <dc:title></dc:title>
      </cc:Work>
    </rdf:RDF>
  </metadata>
  <g
     transform="translate(-255.34564,-540.9049)"
     id="layer1">
    <g
       id="g58"
       transform="matrix(1.1843453,0.39978278,0.39978278,-1.1843453,-188.11472,685.21953)">
      <g
         clip-path="url(#clipPath62)"
         id="g60">
        <g
           transform="translate(362.0843,204.2803)"
           id="g66">
          <path
             id="path68"
             style="fill:#f7aca6;fill-opacity:1;fill-rule:nonzero;stroke:none"
             d="m 0,0 c 1.08,-3.023 -0.496,-6.35 -3.519,-7.429 -3.023,-1.08 -6.349,0.496 -7.429,3.52 -1.079,3.022 0.496,6.348 3.519,7.429 C -4.405,4.599 -1.079,3.023 0,0" />
        </g>
        <g
           transform="translate(339.2093,177.5947)"
           id="g70">
          <path
             id="path72"
             style="fill:#f7ecbf;fill-opacity:1;fill-rule:nonzero;stroke:none"
             d="M 0,0 -5.368,-1.917 -13.827,21.77 -8.458,23.687 0,0 Z" />
        </g>
        <g
           transform="translate(375.6869,190.6211)"
           id="g74">
          <path
             id="path76"
             style="fill:#f7ecbf;fill-opacity:1;fill-rule:nonzero;stroke:none"
             d="m 0,0 -5.369,-1.917 -8.458,23.686 5.368,1.917 L 0,0 Z" />
        </g>
        <g
           transform="translate(378.9281,210.2949)"
           id="g78">
          <path
             id="path80"
             style="fill:#fbf6e2;fill-opacity:1;fill-rule:nonzero;stroke:none"
             d="m 0,0 -45.162,-16.127 c -3.197,-1.142 -6.715,0.524 -7.858,3.723 l -8.984,25.16 45.109,16.108 c 3.227,1.152 6.777,-0.53 7.929,-3.757 L 0,0 Z" />
        </g>
        <g
           transform="translate(348.3158,180.8467)"
           id="g82">
          <path
             id="path84"
             style="fill:#fbf6e2;fill-opacity:1;fill-rule:nonzero;stroke:none"
             d="M 0,0 -5.369,-1.917 -13.827,21.77 -8.458,23.687 0,0 Z" />
        </g>
        <g
           transform="translate(384.7923,193.873)"
           id="g86">
          <path
             id="path88"
             style="fill:#fbf6e2;fill-opacity:1;fill-rule:nonzero;stroke:none"
             d="m 0,0 -5.368,-1.918 -8.459,23.687 5.369,1.917 L 0,0 Z" />
        </g>
        <g
           transform="translate(325.721,227.8535)"
           id="g90">
          <path
             id="path92"
             style="fill:#8f7967;fill-opacity:1;fill-rule:nonzero;stroke:none"
             d="m 0,0 -0.115,0.324 c -0.643,1.798 -2.62,2.735 -4.417,2.093 L -16.67,-1.917 c -1.797,-0.642 -2.734,-2.619 -2.092,-4.417 l 0.116,-0.324 -6.52,-2.328 c 0,0 3.257,-5.012 7.153,0.552 l 4.54,-12.713 c 1.489,-4.168 6.075,-6.34 10.243,-4.852 l 3.552,1.269 c 4.168,1.488 6.34,6.074 4.852,10.242 L 0.634,-1.775 C 7.175,-3.613 6.521,2.328 6.521,2.328 L 0,0 Z" />
        </g>
        <g
           transform="translate(362.0335,239.1592)"
           id="g94">
          <path
             id="path96"
             style="fill:#8f7967;fill-opacity:1;fill-rule:nonzero;stroke:none"
             d="m 0,0 -15.27,-5.453 c 1.372,-1.229 2.961,-2.188 4.547,-3.127 1.875,-1.11 3.804,-2.242 5.952,-2.612 3.406,-0.588 6.844,0.823 9.807,2.606 1.322,0.796 2.615,1.697 3.583,2.896 l -0.69,1.933 C 6.776,-0.53 3.227,1.152 0,0" />
        </g>
        <g
           transform="translate(347.6322,222.0557)"
           id="g98">
          <path
             id="path100"
             style="fill:#8f7967;fill-opacity:1;fill-rule:nonzero;stroke:none"
             d="m 0,0 c 1.296,-0.974 2.538,-2.045 3.503,-3.348 0.964,-1.302 1.641,-2.857 1.698,-4.477 0.101,-2.82 -1.793,-5.515 -4.359,-6.686 -2.568,-1.171 -5.657,-0.914 -8.176,0.357 -2.519,1.271 -4.49,3.472 -5.821,5.961 -0.917,1.713 -1.559,3.604 -1.614,5.547 -0.054,1.942 0.515,3.939 1.786,5.41 C -9.691,6.575 -3.027,2.274 0,0" />
        </g>
        <g
           transform="translate(306.9593,221.5195)"
           id="g102">
          <path
             id="path104"
             style="fill:#fbf6e2;fill-opacity:1;fill-rule:nonzero;stroke:none"
             d="m 0,0 0.115,-0.324 -6.519,-2.328 c 0,0 3.257,-5.012 7.153,0.552 l 3.061,-8.57 c 2.113,0.996 3.893,2.671 4.815,4.81 0.502,1.167 0.75,2.434 0.81,3.704 C 9.524,-0.213 9.157,1.745 8.4,3.535 7.994,4.496 7.524,5.379 6.937,6.147 L 2.092,4.417 C 0.295,3.775 -0.643,1.798 0,0" />
        </g>
      </g>
    </g>
  </g>
</svg>
